REM GENRE Breakbeat
REM DATE 2011
REM COMMENT "DCue v1.4dev"
PERFORMER "Various"
TITLE "Hardcore Underground 5"
FILE "r3151795.wav" WAVE
	TRACK 01 AUDIO
		TITLE "Sky"
		PERFORMER "Gavin G"
		INDEX 01 00:00:00
	TRACK 02 AUDIO
		TITLE "Petrichor"
		PERFORMER "StrifeII"
		INDEX 01 03:05:00
	TRACK 03 AUDIO
		TITLE "Energize (Renegade Slammer)"
		PERFORMER "Shimamura"
		INDEX 01 04:32:00
	TRACK 04 AUDIO
		TITLE "No Disguise"
		PERFORMER "Fracus & Darwin"
		INDEX 01 07:26:00
	TRACK 05 AUDIO
		TITLE "A Touch Of Magic (Uplift & Stargazer 2011 Remix)"
		PERFORMER "Kingsize & Eternity"
		INDEX 01 09:36:00
	TRACK 06 AUDIO
		TITLE "I Will Wait (Fracus & Darwin Remix)"
		PERFORMER "CLSM"
		INDEX 01 12:52:00
	TRACK 07 AUDIO
		TITLE "Summer"
		PERFORMER "Samba D"
		INDEX 01 15:46:00
	TRACK 08 AUDIO
		TITLE "You're Driving Me Crazy"
		PERFORMER "Chris Ross & Audioshift"
		INDEX 01 19:30:00
	TRACK 09 AUDIO
		TITLE "Can't Get Enough"
		PERFORMER "Entity & Sam B"
		INDEX 01 22:24:00
	TRACK 10 AUDIO
		TITLE "Shape Of Love"
		PERFORMER "Darwin & Koopa Vs. Phenex Feat. Le Kat"
		INDEX 01 25:18:00
	TRACK 11 AUDIO
		TITLE "Acid Porn Monkey"
		PERFORMER "Sc@r"
		INDEX 01 28:12:00
	TRACK 12 AUDIO
		TITLE "Only For Me"
		PERFORMER "Slipmatt & Darwin"
		INDEX 01 31:17:00
	TRACK 13 AUDIO
		TITLE "Love Obsession (SMD Remix)"
		PERFORMER "Fracus & Darwin Feat. Cat Knight"
		INDEX 01 33:52:00
	TRACK 14 AUDIO
		TITLE "Falling Through (CLSM Remix)"
		PERFORMER "Al Storm & The Acolyte Feat. Lisa Abbott"
		INDEX 01 36:57:00
	TRACK 15 AUDIO
		TITLE "Hollow"
		PERFORMER "TANUKI"
		INDEX 01 40:02:00
	TRACK 16 AUDIO
		TITLE "Feel So High (No Left Turn Remix)"
		PERFORMER "Dain-Ja Feat. Vicky Fee"
		INDEX 01 43:40:00
	TRACK 17 AUDIO
		TITLE "Dream Of The Moment"
		PERFORMER "Fracus & In Effect Feat. Sam Honey"
		INDEX 01 45:54:00
	TRACK 18 AUDIO
		TITLE "Irish Sunrise"
		PERFORMER "Raving Donkey"
		INDEX 01 48:25:00
	TRACK 19 AUDIO
		TITLE "Sunflower (Sam B Remix)"
		PERFORMER "Firefly"
		INDEX 01 51:41:00
	TRACK 20 AUDIO
		TITLE "Waves Of Desire (Karl Future's Hardcore Junglist Remix)"
		PERFORMER "Kevin Energy"
		INDEX 01 54:37:00
	TRACK 21 AUDIO
		TITLE "Wake Up Call"
		PERFORMER "Fracus & Tom Revolution"
		INDEX 01 58:18:00
	TRACK 22 AUDIO
		TITLE "Dust (Pulse Remix)"
		PERFORMER "Ultravibes"
		INDEX 01 61:13:00
	TRACK 23 AUDIO
		TITLE "Did You See It"
		PERFORMER "Entity"
		INDEX 01 63:22:00
	TRACK 24 AUDIO
		TITLE "One & Only"
		PERFORMER "Ham"
		INDEX 01 66:47:00
	TRACK 25 AUDIO
		TITLE "21 Days"
		PERFORMER "Entity & Darwin Feat. MC Sharkey"
		INDEX 01 69:16:00
	TRACK 26 AUDIO
		TITLE "Stay With Me (Darwin Remix)"
		PERFORMER "DJ Demand"
		INDEX 01 72:22:00
	TRACK 27 AUDIO
		TITLE "Every Time (‘90s Revival Mix)"
		PERFORMER "Brisk & Darwin"
		INDEX 01 74:40:00
